<?xml version="1.0" encoding="utf-8"?>
<!-- Generator: Adobe Illustrator 16.0.4, SVG Export Plug-In . SVG Version: 6.00 Build 0)  -->
<!DOCTYPE svg PUBLIC "-//W3C//DTD SVG 1.1//EN" "http://www.w3.org/Graphics/SVG/1.1/DTD/svg11.dtd">
<svg version="1.1" id="Layer_1" xmlns="http://www.w3.org/2000/svg" xmlns:xlink="http://www.w3.org/1999/xlink" x="0px" y="0px"
     width="24px" height="24px" viewBox="0 0 24 24" enable-background="new 0 0 24 24" xml:space="preserve">
<path fill="#006633" d="M19.197,17.559l-3.105-3.105c0.748-1.08,1.123-2.284,1.123-3.612c0-0.863-0.168-1.688-0.504-2.476
	c-0.334-0.788-0.787-1.466-1.357-2.037s-1.249-1.023-2.037-1.358c-0.787-0.335-1.613-0.502-2.476-0.502
	c-0.863,0-1.688,0.167-2.476,0.502C7.577,5.305,6.898,5.758,6.328,6.328S5.305,7.578,4.97,8.365
	c-0.335,0.788-0.502,1.613-0.502,2.476s0.167,1.688,0.502,2.476c0.334,0.788,0.787,1.467,1.357,2.037
	c0.571,0.57,1.25,1.023,2.037,1.357c0.788,0.336,1.613,0.503,2.476,0.503c1.328,0,2.532-0.374,3.612-1.123l3.104,3.097
	c0.218,0.229,0.489,0.344,0.815,0.344c0.312,0,0.585-0.115,0.814-0.344c0.229-0.23,0.344-0.502,0.344-0.815
	C19.531,18.053,19.42,17.781,19.197,17.559L19.197,17.559z M13.707,13.707c-0.795,0.793-1.749,1.189-2.866,1.189
	S8.77,14.5,7.976,13.707c-0.794-0.795-1.19-1.749-1.19-2.866s0.397-2.072,1.19-2.865s1.749-1.19,2.865-1.19
	c1.116,0,2.071,0.397,2.866,1.19c0.793,0.793,1.189,1.749,1.189,2.865S14.5,12.913,13.707,13.707L13.707,13.707z"/>
</svg>
