<?xml version="1.0" encoding="utf-8"?>
<!-- Generator: Adobe Illustrator 16.0.4, SVG Export Plug-In . SVG Version: 6.00 Build 0)  -->
<!DOCTYPE svg PUBLIC "-//W3C//DTD SVG 1.1//EN" "http://www.w3.org/Graphics/SVG/1.1/DTD/svg11.dtd">
<svg version="1.1" id="Layer_1" xmlns="http://www.w3.org/2000/svg" xmlns:xlink="http://www.w3.org/1999/xlink" x="0px" y="0px"
	 width="24px" height="24px" viewBox="0 0 24 24" enable-background="new 0 0 24 24" xml:space="preserve">
<path display="none" fill="#016735" d="M19.197,17.559l-3.105-3.105c0.748-1.08,1.123-2.284,1.123-3.612
	c0-0.863-0.168-1.688-0.504-2.476c-0.334-0.788-0.787-1.466-1.357-2.037s-1.249-1.023-2.037-1.358
	c-0.787-0.335-1.613-0.502-2.476-0.502c-0.863,0-1.688,0.167-2.476,0.502C7.577,5.305,6.898,5.758,6.328,6.328
	S5.305,7.578,4.97,8.365c-0.335,0.788-0.502,1.613-0.502,2.476s0.167,1.688,0.502,2.476c0.334,0.788,0.787,1.467,1.357,2.037
	c0.571,0.57,1.25,1.023,2.037,1.357c0.788,0.336,1.613,0.503,2.476,0.503c1.328,0,2.532-0.374,3.612-1.123l3.104,3.097
	c0.218,0.229,0.489,0.344,0.815,0.344c0.312,0,0.585-0.115,0.814-0.344c0.229-0.23,0.344-0.502,0.344-0.815
	C19.531,18.053,19.42,17.781,19.197,17.559L19.197,17.559z M13.707,13.707c-0.795,0.793-1.749,1.189-2.866,1.189
	S8.77,14.5,7.976,13.707c-0.794-0.795-1.19-1.749-1.19-2.866s0.397-2.072,1.19-2.865s1.749-1.19,2.865-1.19
	c1.116,0,2.071,0.397,2.866,1.19c0.793,0.793,1.189,1.749,1.189,2.865S14.5,12.913,13.707,13.707L13.707,13.707z"/>
<g>
	<path fill-rule="evenodd" clip-rule="evenodd" fill="#016735" d="M15.836,4.177c0.1,0.017,0.199,0.03,0.297,0.052
		c0.702,0.158,1.275,0.774,1.38,1.485c0.017,0.112,0.025,0.228,0.025,0.341c0.002,4.055,0.001,8.11,0.002,12.166
		c0,0.512-0.168,0.956-0.524,1.323c-0.294,0.302-0.651,0.483-1.07,0.536c-0.109,0.014-0.222,0.019-0.332,0.019
		c-2.817,0.001-5.635,0.002-8.452,0c-0.651-0.001-1.171-0.27-1.547-0.802c-0.222-0.313-0.322-0.67-0.322-1.054
		c0-0.997,0-1.993,0-2.99c0-0.015,0-0.03,0-0.049c0.409,0,0.813,0,1.226,0c0,0.021,0,0.042,0,0.062c0,0.994,0,1.987,0,2.981
		c0,0.292,0.181,0.534,0.456,0.604c0.058,0.015,0.12,0.021,0.18,0.021c2.842,0.001,5.685,0.001,8.527,0.001
		c0.324,0,0.567-0.202,0.626-0.519c0.008-0.041,0.007-0.084,0.007-0.126c0.001-4.062,0-8.123,0.002-12.185
		c0.001-0.314-0.204-0.571-0.49-0.629c-0.046-0.01-0.093-0.014-0.14-0.014c-2.846,0-5.692,0-8.538,0
		c-0.316,0-0.565,0.204-0.621,0.511c-0.008,0.044-0.008,0.09-0.008,0.136c0,0.985,0,1.97,0,2.956c0,0.021,0,0.043,0,0.069
		c-0.408,0-0.813,0-1.224,0C5.293,9.056,5.292,9.039,5.292,9.021c0-0.994-0.001-1.987,0-2.98c0.001-0.828,0.504-1.526,1.281-1.775
		c0.122-0.039,0.252-0.053,0.379-0.079C6.966,4.184,6.981,4.18,6.996,4.177C9.942,4.177,12.89,4.177,15.836,4.177z"/>
	<path fill-rule="evenodd" clip-rule="evenodd" fill="#016735" d="M7.743,10.3c0-0.027,0-0.047,0-0.067c0-0.509,0-1.017,0-1.525
		c0-0.131,0.021-0.258,0.082-0.376c0.11-0.217,0.329-0.245,0.519-0.177C8.366,8.163,8.384,8.184,8.403,8.2
		c0.704,0.609,1.407,1.219,2.11,1.829c0.801,0.694,1.603,1.389,2.404,2.083c0.009,0.007,0.019,0.013,0.032,0.022
		c-0.102,0.089-0.197,0.172-0.292,0.254c-0.832,0.721-1.663,1.441-2.495,2.163c-0.583,0.504-1.166,1.009-1.746,1.516
		c-0.057,0.05-0.117,0.064-0.188,0.065c-0.206,0.004-0.357-0.088-0.426-0.28c-0.035-0.098-0.055-0.206-0.056-0.311
		c-0.005-0.5-0.002-1-0.002-1.5c0-0.02,0-0.04,0-0.066c-0.025,0-0.046,0-0.067,0c-1.197,0-2.395,0-3.592,0
		c-0.312,0-0.56-0.202-0.619-0.508c-0.007-0.035-0.009-0.07-0.009-0.105c0-0.817-0.002-1.634,0-2.45
		c0.001-0.292,0.193-0.528,0.474-0.594c0.054-0.013,0.11-0.017,0.165-0.017C5.288,10.3,6.48,10.3,7.672,10.3
		C7.693,10.3,7.715,10.3,7.743,10.3z"/>
</g>
</svg>
